# xmcd
# 
# Track frame offsets:
#     150
#     18632
#     72060
#     95567
#     118392
#     145402
# 
# Disc length: 2898
# 
# Revision: 24
# Processed by: cddbd v1.5.2PL0 Copyright (c) Steve Scherf et al.
# Submitted via: BonkEnc v1.0.8
# 
DISCID=570b5006
DTITLE=Genesis (Definitive Edition Remaster) - Three Sides Live  [CD 2)
DYEAR=1982
DGENRE=Progressive Rock
TTITLE0=Misunderstanding
TTITLE1=In the Cage (Medley - Cinema Show/Slippermen)
TTITLE2=Afterglow
TTITLE3=One For The Vine
TTITLE4=Fountain of Salmacis
TTITLE5=It/Watcher Of The Skies
EXTD=Definitive Edition RemasterOriginal tracks 1982 YEAR: 1983
EXTT0=
EXTT1=Cinema ShowSlippermen
EXTT2=
EXTT3=
EXTT4=
EXTT5=
PLAYORDER=
